<?xml version="1.0" encoding="UTF-8"?>
<svg xmlns="http://www.w3.org/2000/svg" width="274.521mm" height="407.92103mm" viewBox="0 0 778.16976 1156.31158">
  <title>Lions-Badge-Micro-Since1888-RGB_AW</title>
  <g>
    <g>
      <g>
        <path d="M664.4164,711.41405a3.38452,3.38452,0,0,0,.55-.03H358.70653c-6.82,27.92-11.95,57.88-11.95,92.51,0,41.94,10.19,79.69,30.27,112.14994a200.25133,200.25133,0,0,0,33.50994,40.77,221.83191,221.83191,0,0,0,42.35,30.83c32.31,18.16,70.51993,36.44994,107.45993,54.14989,46.09,22.08007,89.61,42.93,113.15,59.83006,15.53,11.15,26.9,20.82006,35.18,29.07006l.03-.04V755.84409A45.71245,45.71245,0,0,0,664.4164,711.41405Z" transform="translate(-319.57654 -130.50563)" fill="#007a33"></path>
        <path d="M647.00644,878.874c-.15-1.2,3.09-4.96.11-11.35-5.14-11.1-16.9-9.27-24.9-4a126.8262,126.8262,0,0,0-23.5,20.24l.07.62a126.46905,126.46905,0,0,0,27.26,14.75c8.94,3.46,20.83,2.72,23.49-9.21C651.06643,883.044,647.11642,879.994,647.00644,878.874Zm-31.2,28.89a112.3275,112.3275,0,0,0-20.39-18.51l-.56.1a111.603,111.603,0,0,0-10.07,25.68c-2.08,8.25-.13,18.68,10.66,19.75,6.26.6,8.45-3.23,9.5-3.46.98-.25,4.7,2.19,10.03-1.11C624.19644,924.474,621.32645,914.254,615.80643,907.764Zm-64.02995,4.59c-8.52,9.82-11.45,16.03-11.45,16.03-2.23,4.57-5.56,6.33-2.9-.16,0,0,9.79-20.54,13.08-52.87,3.58-35.25994.89-58.53.89-58.53l-4.42-2.39a322.04732,322.04732,0,0,1-1.13995,59.99c-4.85,40.72-18.78,62.65-18.78,62.65-6.49,9.71-7.03,1.67-9.27-3.77a72.67957,72.67957,0,0,0-11.93-20.49c-10.4-13.04-21.07995-18.54-21.07995-18.54l.79,5.5s7.56,3.49,17.17,15.46c10.14,12.63,10.64,17.52,13.5,25.06,2.82,7.38,1.81,11.82,1.4,15.13-.36,2.95-1.33,3.91-1.33,3.91a60.90856,60.90856,0,0,1,10.75,8.28,62.62737,62.62737,0,0,1,11.31,14.2s-1.29-8.48-1.85-16.77a62.98074,62.98074,0,0,1,.12-7.23,70.16432,70.16432,0,0,1,1.55-10.63c1.58-6.82,4.62-22.73,21.86-38.05,13.27-11.79,25.46-16.17,25.46-16.17l3.3-5.83S564.73644,897.40405,551.77648,912.354Zm-33.34-49.01994c-2.92-5.05-7.07-4.69-7.76-5.3-.76-.65-.9-4.75-6.29-6.97-9.35-3.86-15.49,3.85-17.41,11.55a106.67049,106.67049,0,0,0-2.92,25.47l.4.35a104.01231,104.01231,0,0,0,24.85-6.31C516.68647,879.194,523.49646,872.08405,518.43646,863.33405Zm23.2-52.61a124.59351,124.59351,0,0,0-27.92-12.32995c-9.03-2.69-20.63994-1.02-22.32995,10.89-.95,6.87,3.16,9.49,3.37,10.63995.22,1.11-2.64,5.11.78,11.14,5.93,10.48,17.33,7.77,24.76,1.98a124.63662,124.63662,0,0,0,21.44-21.72Zm4.04-62.27995c-7.84-.82-10.73,3.98-11.99,4.26-1.28.29-5.89-2.81-12.6,1.3-11.65,7.15-8.14,20.01-1.25,28.21A139.7422,139.7422,0,0,0,545.34643,805.724l.68-.13995a142.54955,142.54955,0,0,0,12.88995-32.21C561.60644,762.99405,559.26647,749.86405,545.67645,748.44407Zm51.65,49.17c-.28-1.1,2.4-5.24-1.3-11.11-6.42-10.17-17.71-6.89-24.8-.75a124.78,124.78,0,0,0-20.38995,22.75l.13995.58a124.42622,124.42622,0,0,0,28.5,10.96c9.16,2.25,20.64,0,21.75-11.96C601.84641,801.174,597.61644,798.744,597.32646,797.614Zm.13,37.14c-6.16-1.19-8.77,2.42-9.76,2.56-1.07.15-4.49-2.62-10.13.17-9.75,4.88-7.81,15.34-2.9,22.29a111.5505,111.5505,0,0,0,18.65,20.43l.55-.08a114.795,114.795,0,0,0,12.43-24.68C609.11643,847.384,608.16642,836.82405,597.45646,834.754Zm-118.03,60.27-.43-.29a102.35076,102.35076,0,0,0-24.03,9.04c-6.98,3.69-12.97,11.52-6.95,19.67,3.44,4.67,7.49,3.87,8.26,4.39.84.57,1.42,4.63,7.02,6.25,9.72,2.79,14.98-5.54,16.03-13.4A105.95547,105.95547,0,0,0,479.42647,895.024Zm-10.78-32.44c-4.12-7.74-12.81-14.34-21.79-7.67-5.18,3.86-4.27,8.35-4.86,9.19-.64.91-5.13,1.6-6.87,7.81-3.09,10.76,6.17,16.57,14.87,17.67a116.46536,116.46536,0,0,0,28.41.04l.33-.47A116.03063,116.03063,0,0,0,468.6465,862.58405Z" transform="translate(-319.57654 -130.50563)" fill="#fff" fill-rule="evenodd"></path>
      </g>
      <g>
        <path d="M708.6764,334.97415c-9.92,4.29-26.69,11.09-47.82,17.82-31.38,10.01-79.19,21.9-128.70993,21.9a348.61769,348.61769,0,0,1-132.57-26.66,322.6817,322.6817,0,0,1-35.77-17.48l-6.21,6.46a437.439,437.439,0,0,1,16.59,41.7c10.62,31.19,23.29,79.69,23.29,133.68,0,62.57994-13.47,109.13-26.5,154.16994-4.24,14.61-8.5,29.4-12.26995,44.82H664.96639a45.75242,45.75242,0,0,0,43.74-44.47V334.97415Z" transform="translate(-319.57654 -130.50563)" fill="#fff"></path>
        <g>
          <path d="M542.00647,623.7541a25.12548,25.12548,0,0,0-5.41-5.89l2.86005-.56a38.577,38.577,0,0,0-10.44-2.75,34.27368,34.27368,0,0,0-11.21.91,20.80423,20.80423,0,0,1,3.9,2.87,23.6018,23.6018,0,0,1,6.25995,8.98c3.67,9.45,3.88,15.57,3.2,25.08a51.949,51.949,0,0,1-1.46,8.17,107.973,107.973,0,0,0,.09-11.85,67.08448,67.08448,0,0,0-3.79-17.69c-2.25-6.16-5.04-10.87-11.36-14.2a16.89691,16.89691,0,0,0-6.14,5.08c-4.81,6.38995-4.23,10.72-4.23,10.72l3.43994-.66a46.79237,46.79237,0,0,0-1.6,8.07c-.64,4.78,1.44,11.18993,1.44,11.18993l3.1-4.23a49.15643,49.15643,0,0,0,.79,9.06c1.72,7,5.31,7.05,5.41,7.05l.65-3.31s5.05,3.42,6.79,8.09a11.80932,11.80932,0,0,1,.05,7.65s7.25-3.19,11.37-12.75c3.06006-7.06006,2.77-11.9,2.77-11.9l3.31,4.75a68.8524,68.8524,0,0,0,1.99-10.36c.30005-4.09.45-9.52.45-9.52l2.77,1.63A49.86655,49.86655,0,0,0,542.00647,623.7541Zm50.27,11.16a35.1982,35.1982,0,0,0-1.34-6.88995,27.08641,27.08641,0,0,0-3.26-6.26l3.13.78a59.5011,59.5011,0,0,0-4.07-8.54c-3.18-5.38-8.8-10.29-9.14-10.6l3.91.84c-12.12-12.78-23.58-9.45-23.58-9.45l-3.09,1.21s11.62,11.4,17.97,24.45a92.92158,92.92158,0,0,1,7.99,24.61c-.22-.5-3.3-7.44-6.23-13.7a144.01377,144.01377,0,0,0-8.18-14.97c-5.01-8.29-14.82-18.68-14.82-18.68-2.39.48-4.49,2.17-6.66,5.91a22.51161,22.51161,0,0,0-2.54,8.54l5.29-4.14a46.95542,46.95542,0,0,0-2.86,7.49,17.09925,17.09925,0,0,0-.32,8.51l2.93-2.63a27.78424,27.78424,0,0,0,.45,9.32c.69,2.69,3.67,7.01,3.67,7.01l1.68-3.21a31.11251,31.11251,0,0,0,5.22,7.48c2.21,2.47,7.08,5.18,7.08,5.18v-2.66a38.74711,38.74711,0,0,1,10.2,4.93c4.08,3.1,7.63,9.65,7.63,9.65s2.34-2.53,3.9-8.84c1.03-4.12.66-5.73.66-5.73l1.01.61a48.193,48.193,0,0,0,.66-5.51,18.09217,18.09217,0,0,0-.4-5.93Zm-72.74-66.1c-3.37-4.59-5.94-3.37-11.19995-2.93-6.26.52-12.78-.96-17.47-4.53a19.34381,19.34381,0,0,1-6.69-9.56,33.35671,33.35671,0,0,0-10.33-3.47,10.8391,10.8391,0,0,1-7.42-5.24s-1.29,7.8-1.09,11.35a15.28746,15.28746,0,0,0,1.69,6.22l-4.59-2.42s.16,2.84.38,4.61a13.31411,13.31411,0,0,0,2.61,5.86l-5.61-1.18a80.959,80.959,0,0,0,5.09,8.78,26.542,26.542,0,0,0,7.75,7.16l-4.49.7s1.98,4.91,8.44,9c5.1,3.22,11.86,1.86005,11.86,1.86005l-2.22,4.18a26.0054,26.0054,0,0,0,13.19.54c6.19-1.54,11.86-6.37,11.86-6.37a47.25211,47.25211,0,0,0-10.73-11.9c-7.14-5.88995-14.7-8.65-21.9-14.26995a22.5655,22.5655,0,0,1-7.43-10.86c.15.26995,2.09,3.62,9.07,8.35,7.28,4.96,17.58,9.63,24.82,15.68,6.54,5.46,7.52,7.82,9.22,10.63a24.50651,24.50651,0,0,0,6.59-7.92C522.79645,579.46414,522.61646,572.99411,519.53644,568.81411Zm43.04,18.33a176.63566,176.63566,0,0,0-17.47,3.69,141.01123,141.01123,0,0,0-18.29,5.98c-4.07,1.64,7.68-4.77,7.68-4.77s21.7-12.44995,26.16-19.46a22.53592,22.53592,0,0,1-22.33.86c-.94-.47-1.07-.12-1.07-.12-.82,7.61-13.82,19.29-17.47,21.85-2.97,2.06-4.12-1.32995-4.12-1.32995l-1.02-1.58-2.46,1.94a10.42644,10.42644,0,0,1,.97,3.78c.29,2.68-2.55,4.44-2.55,4.44s-4.69,2.73-11.98,7.53c-7.28,4.8-16.9,11.81-24.4,16.19-8.95,5.21-22.82,8.27-22.82,8.27l18.63,3.35s5.85-5.93,13.87-12.79c5.52-4.68,11.54-8.75,16.64-9.67,5.1-.91,10.95.75,10.95.75l4-1.63a40.08243,40.08243,0,0,0-9.78-2.08c-3.95-.17,1.23-3.26,1.23-3.26a75.2068,75.2068,0,0,1,12.86-7.29,115.96975,115.96975,0,0,1,21.37-7.25994c2.42-.62006,9.36,1.9,9.36,1.9l3.22-1.27a12.49726,12.49726,0,0,0-2.54-1.02c-2.98-.9-.65-2.12-.65-2.12a99.61249,99.61249,0,0,1,12.55-2.47,96.17124,96.17124,0,0,1,15.74-.66l.63-3.16A105.17107,105.17107,0,0,0,562.57647,587.14413Zm80.76,25.62c-1.95-6.58-2.03-9.63-2.03-9.63l2.73.59a83.29306,83.29306,0,0,0-2.95-12.09,47.00576,47.00576,0,0,0-3.23-6.97l2.79-1.31994s-4.47-7.68005-11.98-10.25a40.67137,40.67137,0,0,0-14.74-2.47l3.44-5.96s-15.45-1.37-26.61,8.01a33.05132,33.05132,0,0,0-7.08,8.44,27.55741,27.55741,0,0,0-2.09,4.25s9.34-.87,22.15,2.69c11.2,3.11,19.58,7.25,25.2,15.65,5.64,8.44,6.13,12.17,6.76,19.46a39.48213,39.48213,0,0,0-26.45-29.48,83.53629,83.53629,0,0,0-28.2-4.7s-.79,8.09,2.53,14.84c2.88995,5.9,11.77,12.16,11.77,12.16l.87-3.88995a54.41556,54.41556,0,0,0,8.39,8.12,73.42313,73.42313,0,0,0,9.91,6.21l.71-3.75a35.36562,35.36562,0,0,0,5.36,3.52c1.82,1.01,5.73,2.68,5.73,2.68l.04-4.4s3.47,1.84,6.88,7.06006a81.28179,81.28179,0,0,0,5.89,8.13995s.91-4.03,1.45-8.08a36.61554,36.61554,0,0,0,.13995-9.4l4.64,3.3A47.10955,47.10955,0,0,0,643.33645,612.76411Z" transform="translate(-319.57654 -130.50563)" fill="#007a33"></path>
          <path d="M599.94645,456.65417c-8.05-3.93-5.34-9.02-10.38-12.24-5.62-3.59-21.56-6.18-31.03,7.18006a14.16215,14.16215,0,0,0,6.04,1.1c3.17.03,5.36-.94,14.07-.68,6.03.17,8.54,3.05,9.31994,5.12a41.13458,41.13458,0,0,1,2.2,8.94c.65,3.33,1.71,3.32,3.52,7.47.39.91.69,1.88.69,1.88s7.85.27,9.78.4c1.94.13,3.85.45,3.85.45s2.17.39,2.2.34c1.13-1.84,1.83-2.93,1.83-2.93C616.68644,465.79412,606.85642,460.02417,599.94645,456.65417Zm-54.26-20.69c-7.85-1.47-14.7,4.74-22.71,10.44994s-12.13,2.06-18.32,4.75c-6.2,2.68006-5.83,8.77-5.31995,12.76s3.37995,4.42,3.37995,4.42a12.05054,12.05054,0,0,1,7.97-4.85c5.12-.61,11.03,1.38,11.03,1.38s1.6-5.1,5.21-6.63c3.05-1.3,7.04-5.24,10.03-7.26,3.00995-2.02,7.18-3.33,10.69-2.75a32.083,32.083,0,0,1,6.23,1.68h.01C554.87646,445.02417,553.54644,437.42414,545.68646,435.96418Zm-53.29-10.71c-10.57,5.28-6.86,12.38-12.01,17.61-5.14,5.22-5.97,3.35-12.13,9.23a17.562,17.562,0,0,0-5.5,14.17s4.26-3.63,17.87,2.36c0,0,3.54-3.33,15.7-1.45a12.038,12.038,0,0,1-1.09-2.72c-.54-3.2-1.67-13,7.77-17.09a20.79861,20.79861,0,0,1,8.44-1.53c3.01-.07,5.43-.07,9.13-2.79,2.91-2.13995,6.63-4.75,9.17-6.51C529.74646,436.53418,513.01648,414.95417,492.39649,425.25416Zm89.76994-7.65a13.75128,13.75128,0,0,0-5.38-4.62c-4.71-2.38995-9.65-5.94-15.94-3.68-10.45,3.71-13.97,4.18-27.87,3.56-8.97-.38-13.62,4.3-15.45,9.09a46.63156,46.63156,0,0,1,15.26,12.2l.31.44c4.12-2.17,8.5-3.43,13.34-2.7,4.25.63,11.98,6.32,11.76,13.02a24.48665,24.48665,0,0,1,8.75-5.54,47.7318,47.7318,0,0,1,6.48-1.48,44.5507,44.5507,0,0,1,6.92-10.47C583.83647,423.17414,583.86644,420.31416,582.16643,417.60413Zm-24.56,54.91c-1.22-1.67-4.7-2.58-6.77-2.75-2.66-.24-3.91,1.02-5.46,2.94l-.01.01c-.01.00994-.03.01995-.03.04-.11.13-.23.28-.23.28-2.58,3.09-9.68,5.51-4.66,9.17,2.96,2.14,7.06,4.2,10.86,2.25C553.68645,483.21416,559.36645,474.93414,557.60644,472.51415Zm0,0c-1.22-1.67-4.7-2.58-6.77-2.75-2.66-.24-3.91,1.02-5.46,2.94l-.01.01c-.01.00994-.03.01995-.03.04-.11.13-.23.28-.23.28-2.58,3.09-9.68,5.51-4.66,9.17,2.96,2.14,7.06,4.2,10.86,2.25C553.68645,483.21416,559.36645,474.93414,557.60644,472.51415Zm14.92,2.17c-4.32-8.17.05-11.63-5.92-16.48-2.01995-1.64-6.7-.9-10.21-2.72-2.93006-1.52-7.46-3.44-11.3-3.23-3.31994.19-7.48,3.11-10.37,5.41-4.97,3.95-7.94,4.45-9.27,9.86-1.09,4.52-3.06,14.24-.44,18.15,2.94995,4.42005,5.27,4.19,7.22,8.44,1.92,4.27,1.98,6.98,8.98,8.97,5.54,1.56,12.56005-3.28,12.56005-3.28s2.04,2.38,4.05,2.21c2.76-.25,10.15-4.97,12.65-9.09C573.70647,487.58416,575.05644,479.45415,572.52648,474.68414Zm-13.85,7.9c-3.25,6.57-7.65,7.25-10.61,7.29-2.84.04-9.11-2.75-11.68-5.49-3.42-3.64-2.57-5.84-2.16-6.95.86-2.28,3.1-4.01,5.24-5.5,2.11-1.47,3.4-3.81,6.14-5.84,2.71-2.03,8.72-.33,14.03,2.51C566.14647,472.10412,560.71642,478.47411,558.67644,482.58416Zm-7.84-12.82c-2.66-.24-3.91,1.02-5.46,2.94l-.01.01c-.01.00994-.03.01995-.03.04-.11.13-.23.28-.23.28-2.58,3.09-9.68,5.51-4.66,9.17,2.96,2.14,7.06,4.2,10.86,2.25,2.38-1.24,8.06-9.52,6.3-11.94C556.38647,470.84417,552.90643,469.93414,550.83648,469.76415Zm39.16,7.51c-.6-3.76-2.36-4.16-3.67-8.17-1.74-5.25-1.34-8.62-2.88-10.48-3.38-4.05-12.52-2.04-12.52-2.04s3.38,2.21,3.63,7.91c.16,3.42.38,4.83,1.11,6.23,4.67,9.02,2.08,17.83-1.04,23.68-3.81,7.21-12.02,10.93-15.14,12.46-3.14,1.54-5.46-1.55-5.46-1.55s-1.18.47-2.13.88a28.52069,28.52069,0,0,1-2.84.92s.6.84,1.47,1.93a33.80844,33.80844,0,0,0,3.16,3.48c1.66,1.51,5.4,3.45,8.64,2.57,4.44-1.23,15-6.68,19.93-13.81,4.94-7.13,3.38-10.66,5.64-14.87C590.26646,481.97411,590.38646,479.70415,589.99644,477.27416Zm20.61,3.73c-3.39-1.13-15.94-1.49-15.94-1.49a17.78127,17.78127,0,0,1-.81,4.15c-.77,2.04-2.56,4.51-2.98,7.56a28.62726,28.62726,0,0,1-5.32,12.99c-3.37,4.82-11.83,10.47-11.83,10.47a22.3543,22.3543,0,0,1,3.61,8.73c2,10.2.92,13.64.92,13.64s10.11,6.91,17.56,5.28c8.24-1.83,12.03-9.31,12.41-12.47.37-3.15-1.34-7.48,2.88-11.16,2.71-2.36,11.68-11.6,11.5-22.09C622.4664,489.13414,614.17643,482.20415,610.60642,481.00414Zm16.04,52.07s-6.33-.27-9.64-.59c-1.98-.19-3.24-.3-4.02-.37-.76-.06-1.04-.07995-1.04-.07995a23.383,23.383,0,0,1-5.18,8.81994c-3.04,3.13-7.91,6.6-16.68,5.69-6.68-.69-13.42-5.07-13.42-5.07s.08.17-.4.74006c0,0,1.07995,2.82.72,8.28a29.151,29.151,0,0,1-2.02,8.12s10.9,6.16,18.67,1.76c6.85-3.87,5.74-9.61,14.36-9.97,8.59-.37,17.1.68,18.86-11.11005A18.01148,18.01148,0,0,0,626.64646,533.07413Zm-53.96,13.46c-.04,0-.07.11-.07.11a29.66617,29.66617,0,0,1-8.87,5.43c-5.39,2.04-11.75,2.4-20.39.95-12.54-2.11005-14.66-8.89-14.66-8.89s-1.31,2.12-5.63,3.86c-3.66,1.47-11.61,1.48-15.12,1.18a45.04718,45.04718,0,0,1-15.45-4.46,50.03417,50.03417,0,0,1-5.04,1.1s.93,10.54,10.54,14.05c10.93,4,14.44-2.37,28.01,3.55,22.42,9.77,26.82,8.14,34.14,4.24,5.94994-3.16,9.94994-9.37,9.94994-9.37a18.83468,18.83468,0,0,0,2.75-9.33C572.84642,546.89414,572.75646,546.53415,572.68645,546.53415Zm1.02-17.56c-.71-7.79-3.81-11.85-3.81-11.85s-5.49,2.87-10.09,2.9c-5.33.07-10.5-4.72-10.5-4.72s-9.6,6.43-13.41,6.31c-6.01-.15-7.33-1.07995-11.82-6.04-4.28-4.74-16.84-7.18-19.86-11.53-3.23-4.59-3.33-8.50994-2.27-15.73,1.5-10.07-1.14-15.8-1.14-15.8s-12.03-3.55-17.69-.36c-6.03,3.41-8.55,9.76995-8.63,16.28-.09,6.67,8.75,9.28,9.02,19.47.18,7.03-.66,13.5,1.31,20.35a19.09183,19.09183,0,0,0,10.63,12.12,40.95932,40.95932,0,0,0,9.27,3.23c2.75.67,13.66,2.14,18.36-.81a25.58033,25.58033,0,0,0,6.42-5.93s3.09,8.47,9.06,10.59c9.46,3.35,20.3,3.65,27.61-1.25C573.48644,541.31412,574.39647,536.7941,573.70647,528.9741Zm60.94-50c-4.36-8.18-8.99-7.93-8.99-7.93l-9.43,3s-.13.28-1.17,2.1c-.89,1.6-1.36,2.28-1.36,2.28,3.32,1.61005,4.98,3.07,7.75,6.16,4,4.41,5.57,9.13,4.41,16.68-1.17,7.56-8.94,17.24-11.28,18.81-3.71,2.56-2.44,7.97-2.44,7.97s2.67.25,6.3.5c4.95.34,4.88.69,7.02.22,0,0,7.54-4.79,7.5-13.37-.04-5.72.13-11.43,1.44995-16.74C635.7164,493.34416,639.56644,488.20415,634.64645,478.97411Zm-12.23-30.38994c-4.59-2.55-11.56-4.95-15.9-11.27-6.88-9.98-10.5-11.05-15.12-11.36-3.48-.24-5.55005,1.41-8.21,3.72-3.23,2.84-4.93,7.94-4.93,7.94s11.53.15,16.31,4.6c3.77,3.53,1.87,6.64,6.79,10.32.91.68,7.5,4.46,11.02,7.1,4.67,3.5,5.25,9.73,5.25,9.73,1.1-.33,1.51-.53,2.65-.91a20.75894,20.75894,0,0,0,6.13-2.93,7.78781,7.78781,0,0,0,3.17-5.33C630.2164,455.46417,627.01645,451.11413,622.41642,448.58417ZM480.44649,531.73411c-2.26-6.51-2-13.74-1.84-20.71.14-6.07-1.47-8.96-5.02-13.05-4.8-5.49-4.72-9.77-3.15-16.96.92-4.18,5.81-9.21,5.81-9.21s-18.64-7.89-18.44,8.33,7.32,11.39,8.65,33.96c.43,7.36-2.29,15.62994,6,24.28,3.26,3.41,6.98,4.98,14.5,3.28A24.35468,24.35468,0,0,1,480.44649,531.73411Zm63.51-23.38s-7.72-.43-12.2-5c-3.98-4.07-2.99-6.53-5.28-8.75-3.18-3.06-6.22-4.4-7.4-10.2a32.79054,32.79054,0,0,1,1.08-15.5s-5.68-2.06-8.99-1.41c-4.23.83-6.06,3.28-5.32,5.68.66,2.1,1.08,5.15.77,11.97-.23,5.07-2.91,12.19,2.17,16.99,5.08,4.79,12.42,4.5,17.93,9.8,3.29,3.17,5.89,6.77,12.11,4.01a29.88446,29.88446,0,0,0,7.46-4.41Z" transform="translate(-319.57654 -130.50563)" fill="#af001e"></path>
        </g>
      </g>
      <g>
        <path d="M1019.8463,512.39415c0-53.99,12.66-102.49,23.29-133.68a434.2085,434.2085,0,0,1,16.59-41.7l-6.21-6.46a320.05139,320.05139,0,0,1-35.77,17.48,348.66171,348.66171,0,0,1-132.57,26.66c-49.52,0-97.3-11.89-128.69-21.87-21.12-6.76-37.86-13.56-47.78-17.85V666.91406a45.59821,45.59821,0,0,0,43.63994,44.47h306.3c-3.77-15.42-8.06994-30.21-12.3-44.82C1033.31639,621.52412,1019.8463,574.97409,1019.8463,512.39415Z" transform="translate(-319.57654 -130.50563)" fill="#002055"></path>
        <path d="M868.62637,419.56416c-2.45.1-4.83.33-7.17.62-3.42005,12.47-6.78,29.18-3.37,45.79-.31-.9-6.68005-19.85-2.76-44.84-2.59.51-5.1,1.13-7.55,1.83-2.96,16.93,1.6,40.58995,2.71,45.94,0,0-5.75-14.4-8.81-43.97q-3.75,1.35-7.23,2.96c2.89,20,8.55,43.65,8.76,44.53-4.51-11.67-6.81-22.41-14.78-41.5-2.27,1.23-4.45,2.53-6.53,3.87,8.22,20.59,13.87,40.36,14.21,41.58-4.81-11.24-10.17-23.49-19.92-37.62-2.16,1.59-4.19,3.2-6.09,4.81,8.92,11.66,18.98,35.67,19.6,37.16-4.93-9.25994-13.12-22.78-24.85-32.41-2.1,2.02-3.98,3.96-5.63995,5.79,15.64995,11.34,24.13,30.66,24.44,31.38-4.02-6.94-12.36-19.65-29.05-26.01a76.33629,76.33629,0,0,0-4.68,6.36c21.41,4.72,31.34,30.45995,31.34,30.45995,21.59-20.85,45.06-25.82,45.06-25.82C858.69638,449.13415,868.62637,419.56416,868.62637,419.56416Zm42.96,57.97c24.19,20.8,15.94,69.79,15.94,69.79-2.52,3.36-16.94-8.06-16.94-8.06,9.62994,40.6-10.21,85.24-10.21,85.24,29.94-23.68,39.24-51.77,39.24-51.95C971.03631,492.24413,911.58638,477.53417,911.58638,477.53417Zm-25.31,90.42a37.26409,37.26409,0,0,1-7.37006,5.51s11.14,22.43,3.87006,50.88994a22.38044,22.38044,0,0,1-8.56006,3.15c-31.31,3.97-51.48-43.2-51.48-43.2,0,20.14-8.25,23.51-8.25,23.51-14.93-9.45-18.58-64.52-18.58-64.52-9.56995,18.41-23.11,64.03,7.43005,91.4,34.38994,30.82,85.70994-2.39,85.70994-2.39C897.98635,602.63411,889.04635,575.34414,886.27639,567.95413Zm-107.03,10.46c-15.79-1.31-25.96-24.93-25.96-25.01-2.56,44.48,15.79,59.13994,15.79,59.13994-9.92,1.35-15.97-1.78-16.28-1.94,23.89,45.2,45.36,28.82,45.36,28.82C772.1964,614.66408,779.24639,578.41409,779.24639,578.41409Zm9.05-72.91c-7.55-9.45-5.87-28.02-5.87-28.02-35.13,58.65-2.43,95.55-2.43,95.55,6.99-43.01,35.64-70.95,35.64-70.95C802.46635,495.97411,788.29637,505.50413,788.29637,505.50413Zm194.53,88.49s-19.4-16.24-57.9,14.51c0,0-11.6,16.24-34.49,29.53,0,0,13.46,10.96,33.65,1.6,0,0,15.39-7.75,28.81,1.24C952.89636,640.87409,952.44635,599.3741,982.82635,593.9941Zm-.8-90.37c-1,1.96-16.29,17.93-16.29,17.93,13.23-47.89995,1.5-65.17,1.5-65.17-.5,21.26-19.85,41.87-19.85,41.87,20.91,41.46-9.67,93.11-9.67,93.19C996.81633,553.4841,982.02636,503.62413,982.02636,503.62413Zm-51.3-74.94c4.68,13.93-4.87,33.32-4.87,33.32-8.36-34.71-41.25-42.93-45.12-42.04,5.11,4.65,9.86,25.17,9.86,25.17-17.29,12.14-17.17,23.55-17.17,23.55,51.87-10.02,71.4,25.17,71.4,25.17C960.30634,447.74414,930.72633,428.68415,930.72633,428.68415Zm-26.36,71.14c-8.96-22.54-36.25-28.04-60.96-12.3-24.72,15.74-37.56993,46.70995-28.61,69.25,8.9,22.44994,36.25,28.04,60.97,12.3C900.47634,553.33414,913.33638,522.36411,904.36635,499.82414Z" transform="translate(-319.57654 -130.50563)" fill="#fff"></path>
      </g>
      <g>
        <path d="M1058.64633,711.38408h-306.3a3.5089,3.5089,0,0,0,.56.03,45.555,45.555,0,0,0-44.19994,44.43V1130.654c8.25-8.24,19.61-17.88,35.12-29.03,23.54-16.9,67.06-37.75,113.13992-59.83006,36.95-17.69995,75.16-35.98992,107.47-54.14989a220.51822,220.51822,0,0,0,42.37-30.86,198.20271,198.20271,0,0,0,33.49-40.74c20.06994-32.46,30.27-70.20994,30.27-112.14994C1070.56638,769.26407,1065.46628,739.30406,1058.64633,711.38408Z" transform="translate(-319.57654 -130.50563)" fill="#af001e"></path>
        <g>
          <path d="M1008.63634,815.604c-1.8-2.75-4.45-5.05-6.5-5.78a17.84145,17.84145,0,0,0-4.43-.95,11.3904,11.3904,0,0,0-7.23,2.15c-.03.03-.1.03-.13.06a1.20771,1.20771,0,0,1,.13.26s1.51,2.84-.95,12c-1.83,6.7-3.32,7.05-6.32,15.06994a106.0206,106.0206,0,0,0-3.47,14.06s0-6.43994.57-11.47c1.13-9.89,4.04-12.82,5.52-20.91a16.958,16.958,0,0,0-.98-10.17c-.25-.42-.53-.88995-.82-1.38995-1.73-3.01-4.17-7.14-9.66-9.7a23.18335,23.18335,0,0,0-8.5-2.25,19.05588,19.05588,0,0,0-8.31,1.36,16.0367,16.0367,0,0,0-5.72,3.79c-4.17,4.74-7.74,17.06-7.77,17.19l.76-9.95a48.86871,48.86871,0,0,0-6.92,8.81006c-4.71,7.07995-4.58,11.41-4.58,11.47v.06l-.98,11.35-2.12-7.56c-.85,1.27-2.27,3.32-4.17,6.67-2.87,5.12-3.35,13.01995-3.35,13.01995l-.79,10.96-1.99-9.32s-1.01.06-4.42,13.24a43.51654,43.51654,0,0,0-1.01,16.17l-1.9-4.04a219.98671,219.98671,0,0,0-4.06995,28.97,13.35825,13.35825,0,0,1,8.62-2.94,8.82973,8.82973,0,0,1,.89.03c6.06-49.44,29.41-71.49,33.71-75.22v-.35a19.00665,19.00665,0,0,1,2.52-9.57,16.13409,16.13409,0,0,1,8.44-7.19995c2.65-.98,6.66-.48,6.76-.48a39.53643,39.53643,0,0,0-7.74,4.49,16.18931,16.18931,0,0,0-4.17,4.44995,14.092,14.092,0,0,0-2.12,6.77,20.01222,20.01222,0,0,0,.89,6.98,16.07714,16.07714,0,0,0,2.49,4.61005,13.97834,13.97834,0,0,0,3.04,2.87,20.09088,20.09088,0,0,1,2.08-4.26c1.77-2.81,5.72-4.23,5.85-4.33a38.01448,38.01448,0,0,0-5.19,10.36,22.0853,22.0853,0,0,0-.6,9.48,21.67808,21.67808,0,0,0,3.86,8.85c2.37,3.41,9.13,9.7,11.59,11.97a19.36007,19.36007,0,0,1,1.58-3.35,16.798,16.798,0,0,1,3.51-3.95c1.07-.98,2.43-2.21,4.30005-4.1,5.18-5.28,5.59-8.94,6.12-13.62.51-4.64-.66-11.25-.66-11.31a21.70484,21.70484,0,0,1,3.6,8.53,19.96122,19.96122,0,0,1,.1,5.09c1.83-1.17,5.08-3.51,6.22-6.51,2.56-6.64,1.58-10.59.66-14.38-.06-.25-.12-.53-.18-.76a28.09935,28.09935,0,0,0-6.23-11.56,14.4365,14.4365,0,0,1,7.74,6.64,34.68544,34.68544,0,0,1,2.15,5.56c.76-.67,1.96-2.37,2.78-6.45C1011.92632,821.234,1009.93633,817.50405,1008.63634,815.604Zm-48.27,30.74a21.585,21.585,0,0,1-6.76-7.61,18.663,18.663,0,0,1-1.45-4.32995c-6.44995,6.25994-25.81,28.43-31.19,71.89994a14.25477,14.25477,0,0,1,8.34,5.28,135.68143,135.68143,0,0,1,4.43-18.99l1.67-5.02c3.19-9.07,5.59-12.51,5.59-12.51l-8.34-.57c.1,0,7.3-2.37,9.99-4.33,1.48-1.06994,3.85-3.31,6.63-7.95995,1.71-2.87,3.56995-5.75,4.58-7.33l-4.8-.41a34.70388,34.70388,0,0,0,9.23-4.96A8.79557,8.79557,0,0,0,960.36633,846.34406Zm-100.18,33.46-1.93,4.04a42.81138,42.81138,0,0,0-1.01-16.17c-3.41-13.18-4.42-13.24-4.42-13.24l-1.96,9.32-.82-10.96s-.48-7.9-3.35-13.01995c-1.86-3.35-3.32-5.4-4.14-6.67l-2.15,7.56-.98-11.35v-.03l.04-.03c0-.06.09-4.39-4.62-11.47a49.88815,49.88815,0,0,0-6.88-8.81006l.75,9.95c-.06-.13-3.6-12.45-7.8-17.19a16.00028,16.00028,0,0,0-5.69-3.79,19.18921,19.18921,0,0,0-8.34-1.36,23.09137,23.09137,0,0,0-8.46,2.25c-5.53,2.56-7.93,6.69-9.7,9.7-.29.5-.54.97-.82,1.38995a17.07926,17.07926,0,0,0-.94995,10.17c1.44995,8.09,4.36,11.02,5.5,20.91a110.74128,110.74128,0,0,1,.56,11.47s-1.54-8.93994-3.47-14.06c-2.97-8.01995-4.49-8.37-6.29-15.06994-2.49-9.16-.98-12-.98-12a1.20881,1.20881,0,0,1,.12994-.26c-.03-.03-.06-.03-.12994-.06a11.32793,11.32793,0,0,0-7.23-2.15,17.19622,17.19622,0,0,0-4.39.95c-2.06.73-4.71,3.03-6.54,5.78-1.27,1.9-3.29,5.63-2.5,9.51.82,4.08,2.05,5.78,2.78,6.45a35.42959,35.42959,0,0,1,2.18-5.56,14.52926,14.52926,0,0,1,7.71-6.64,28.15172,28.15172,0,0,0-6.19,11.56c-.06995.23-.13.51-.19.76-.95,3.79-1.9,7.74.66,14.38,1.14,3,4.36,5.34,6.23,6.51a17.186,17.186,0,0,1,.09-5.09,21.21451,21.21451,0,0,1,3.6-8.53,48.47424,48.47424,0,0,0-.66,11.31c.5,4.68.95,8.34,6.13,13.62,1.86,1.89,3.19,3.12,4.26,4.1a16.322,16.322,0,0,1,3.54,3.95,18.86853,18.86853,0,0,1,1.55,3.35c2.46-2.27,9.22-8.56006,11.59-11.97a20.37439,20.37439,0,0,0,3.25994-18.33,38.76781,38.76781,0,0,0-5.15-10.36c.09.1,4.04,1.52,5.84,4.33a21.96716,21.96716,0,0,1,2.06,4.26,14.20514,14.20514,0,0,0,3.06-2.87,15.753,15.753,0,0,0,2.46-4.61005,18.49555,18.49555,0,0,0,.89-6.98,13.95429,13.95429,0,0,0-2.09-6.77,16.31549,16.31549,0,0,0-4.19995-4.44995,39.72834,39.72834,0,0,0-7.71-4.49c.07,0,4.08-.5,6.73.48a16.02716,16.02716,0,0,1,8.44,7.19995,19.06361,19.06361,0,0,1,2.56,9.57l-.04.35c4.3,3.73,27.64995,25.78,33.75,75.22a8.63307,8.63307,0,0,1,.88-.03,13.1781,13.1781,0,0,1,8.59,2.91A214.81274,214.81274,0,0,0,860.18637,879.804Zm-39.59-45.39995a17.332,17.332,0,0,1-1.42,4.32995,21.48822,21.48822,0,0,1-6.76,7.61,8.625,8.625,0,0,0,2.06,3.16,34.77,34.77,0,0,0,9.25,4.96l-4.83.41c1.04,1.58,2.9,4.46,4.61,7.33,2.78,4.65,5.15,6.89,6.64,7.95995,2.65,1.96,9.85,4.33,9.95,4.33l-8.34.57s2.4,3.44,5.59,12.51l1.7,5.02a139.11044,139.11044,0,0,1,4.43,18.96,14.39574,14.39574,0,0,1,8.34-5.25C846.44638,862.83405,827.04636,840.664,820.59635,834.40407Zm55.26-3.16a58.65978,58.65978,0,0,0-6.57-5.09,27.222,27.222,0,0,1-5.44-4.54,14.20175,14.20175,0,0,1-1.04-1.46c-.03.69995-.06,1.52-.06,2.47a23.4908,23.4908,0,0,0,.6,5.27l11.09,14.91-11.12-8.34c-.1,2.15-.22,5.6-.22,8.85a55.2182,55.2182,0,0,0,1.26,12.35l9.1,10.24-8.03-3.1s.13,8.44,8.16,21.07h11.18v-44.07C882.36635,837.46406,878.12637,833.39406,875.85635,831.244Zm22.49,11.56,11.09-14.91a25.47934,25.47934,0,0,0,.6-5.27c0-.95-.03-1.77-.06-2.47-.35.51-.69,1.01-1.04,1.46a27.50932,27.50932,0,0,1-5.47,4.54,61.38087,61.38087,0,0,0-6.54,5.09c-2.3,2.15-6.54,6.22-8.91,8.56v44.07h11.16c8.02-12.63,8.15-21.07,8.15-21.07l-8.03,3.1,9.13-10.24a56.95106,56.95106,0,0,0,1.27-12.35c0-3.25-.16-6.7-.23-8.85Zm33.36-55.89a19.20489,19.20489,0,0,0-8-13.61c-6.55-4.26-18.23-8-18.32-8.03a35.33026,35.33026,0,0,1,17.74,1.36,31.56876,31.56876,0,0,0-3.54-8.34,21.20531,21.20531,0,0,0-6.46-6.85,19.5366,19.5366,0,0,0-10.89-3.09,22.50963,22.50963,0,0,0-10.67,2.66,43.68781,43.68781,0,0,1,.83,9.73c0,6.96-1.54,11.99-1.98,17.52-.65,8.28-2.88,26.59-2.88,26.59s-.68-9.22-1.99-18.43c-1.37-9.44-2.2-13.28-2.64-20.67-.44-7.21-.55-12.52-.55-14.13a23.28822,23.28822,0,0,0-11.82-3.27,19.53636,19.53636,0,0,0-10.88995,3.09,21.55387,21.55387,0,0,0-6.47,6.85,31.81676,31.81676,0,0,0-3.53,8.34,49.24619,49.24619,0,0,1,5.75-1.45,47.87409,47.87409,0,0,1,11.99.09c-.09.03-11.76,3.77-18.3,8.03a19.22107,19.22107,0,0,0-8.02,13.61,14.72559,14.72559,0,0,0,.9,6.62,17.75748,17.75748,0,0,0,4.55005,6.56c6.88995,6.47,10.71,8.99,12.57,9.96-.18005-2.47-.2-6.86,1.31995-9.68,2.08-3.82,7.97-9.52,8.12-9.68-.04.09-4.7,12.21-4.7,19.36,0,3.95,1.65,7.39,10.08,13.35a59.79664,59.79664,0,0,1,7,6.27c2.32,2.36,4.38,4.64,5.48,5.89,2.23-2.5,8.27-9.14,12.5-12.16,8.4-5.96,10.06-9.4,10.06-13.35,0-7.15-4.66-19.27-4.7-19.36.15.16,6.03,5.86,8.13,9.68,1.53,2.82,1.49,7.21,1.32,9.68,1.86-.97,5.67-3.49,12.56-9.96a17.44,17.44,0,0,0,4.56-6.56A15.00475,15.00475,0,0,0,931.70637,786.914Zm-13.61,152.26-.89,22.74-1.54,1.46-1.46-1.58.92-23.13c-2.37-.41-4.74-.72-7.14-.98l.51,25.91,6.98,7.42,7.55005-7.01,2.3-23.38C922.92634,940.054,920.52638,939.584,918.09633,939.174Zm-60.44-.51.92,23.13-1.45,1.58-1.55-1.46-.89-22.74c-2.43.41-4.86.88-7.26,1.45l2.3,23.38,7.58,7.01,6.99-7.42.47-25.91C862.39639,937.944,860.0264,938.254,857.65634,938.664Zm30.36-2.27v35.87l-1.64,1.62-1.61-1.62v-35.87c-2.69,0-5.34.09-8.03.25l2.37,39.26,7.37,7.19995,7.2-7.19995,2.34-39.26C893.35634,936.484,890.70638,936.394,888.01638,936.394Z" transform="translate(-319.57654 -130.50563)" fill="#fff"></path>
          <path d="M831.25638,898.204l-13.49,5.18,15.59,33.42,2.5-7.25C829.8964,910.444,831.25638,898.204,831.25638,898.204Zm101.99,32.26c-14.83-3.67-31.46-6.28-46.86-6.28s-32.03,2.61-46.87,6.28l-2.80005,8.12c.29-.08.58-.17.87006-.25a185.61009,185.61009,0,0,1,97.59995,0c.28.08.57.17.86.25Zm8.27-32.26s1.36,12.24-4.6,31.35l2.5,7.25,15.59-33.42Zm-22.37,13.13c-4.32-.79-8.22,1.01995-8.77,4.01995-.54,2.98,2.5,6.04,6.82,6.82,4.28.78,8.21-1.01,8.75-4.01C926.49635,915.174,923.43635,912.114,919.14637,911.334Zm-56.76,4.01995c-.54-3-4.45-4.81-8.76-4.01995-4.3.78-7.35,3.84-6.81,6.83.55,3,4.48,4.79,8.76,4.01C859.88638,921.394,862.92636,918.334,862.38638,915.354Zm24-8.31994-9.18,6.26,9.15,6.3,9.2-6.3Zm-8.84-17.87s2.03,3.61,3.1,6.02c1.01,2.28,2.06995,5.54,2.62,7.26h6.25a73.031,73.031,0,0,1,2.62-7.26c1.04-2.41,3.09-6.02,3.09-6.02Z" transform="translate(-319.57654 -130.50563)" fill="#a39161"></path>
        </g>
      </g>
    </g>
    <path d="M645.86642,212.90424a18.01435,18.01435,0,0,1-7.11,5.08,14.11964,14.11964,0,0,0,3.5-7.5,8.874,8.874,0,0,1-1.04-1.24,9.63631,9.63631,0,0,1-1.45-3.07,9.36816,9.36816,0,0,1-4.72,1.82,14.13681,14.13681,0,0,0-1.92,8.02,18.268,18.268,0,0,1-2.39-8.36,18.45,18.45,0,0,1-2.96-1s.42,2.08.76,5.34c.34,3.25.31,4.63-.76,7.36a9.96063,9.96063,0,0,0-.69,4.86,4.03671,4.03671,0,0,1,3.67-2.4s-1.89,4.03,1.4,5.42c3.29,1.37,4.56-.82,5.34-3.09,0,0,1.83.58,2.12,3.98,1.76-2.13,2.36-2.28,3.54-6.2,1.35-4.07,3.29-5.79,5.61005-8.04A18.34584,18.34584,0,0,1,645.86642,212.90424Zm0,0a18.01435,18.01435,0,0,1-7.11,5.08,14.11964,14.11964,0,0,0,3.5-7.5,8.874,8.874,0,0,1-1.04-1.24,9.63631,9.63631,0,0,1-1.45-3.07,9.36816,9.36816,0,0,1-4.72,1.82,14.13681,14.13681,0,0,0-1.92,8.02,18.268,18.268,0,0,1-2.39-8.36,18.45,18.45,0,0,1-2.96-1s.42,2.08.76,5.34c.34,3.25.31,4.63-.76,7.36a9.96063,9.96063,0,0,0-.69,4.86,4.03671,4.03671,0,0,1,3.67-2.4s-1.89,4.03,1.4,5.42c3.29,1.37,4.56-.82,5.34-3.09,0,0,1.83.58,2.12,3.98,1.76-2.13,2.36-2.28,3.54-6.2,1.35-4.07,3.29-5.79,5.61005-8.04A18.34584,18.34584,0,0,1,645.86642,212.90424Zm0,0a18.01435,18.01435,0,0,1-7.11,5.08,14.11964,14.11964,0,0,0,3.5-7.5,8.874,8.874,0,0,1-1.04-1.24,9.63631,9.63631,0,0,1-1.45-3.07,9.36816,9.36816,0,0,1-4.72,1.82,14.13681,14.13681,0,0,0-1.92,8.02,18.268,18.268,0,0,1-2.39-8.36,18.45,18.45,0,0,1-2.96-1s.42,2.08.76,5.34c.34,3.25.31,4.63-.76,7.36a9.96063,9.96063,0,0,0-.69,4.86,4.03671,4.03671,0,0,1,3.67-2.4s-1.89,4.03,1.4,5.42c3.29,1.37,4.56-.82,5.34-3.09,0,0,1.83.58,2.12,3.98,1.76-2.13,2.36-2.28,3.54-6.2,1.35-4.07,3.29-5.79,5.61005-8.04A18.34584,18.34584,0,0,1,645.86642,212.90424Zm0,0a18.01435,18.01435,0,0,1-7.11,5.08,14.11964,14.11964,0,0,0,3.5-7.5,8.874,8.874,0,0,1-1.04-1.24,9.63631,9.63631,0,0,1-1.45-3.07,9.36816,9.36816,0,0,1-4.72,1.82,14.13681,14.13681,0,0,0-1.92,8.02,18.268,18.268,0,0,1-2.39-8.36,18.45,18.45,0,0,1-2.96-1s.42,2.08.76,5.34c.34,3.25.31,4.63-.76,7.36a9.96063,9.96063,0,0,0-.69,4.86,4.03671,4.03671,0,0,1,3.67-2.4s-1.89,4.03,1.4,5.42c3.29,1.37,4.56-.82,5.34-3.09,0,0,1.83.58,2.12,3.98,1.76-2.13,2.36-2.28,3.54-6.2,1.35-4.07,3.29-5.79,5.61005-8.04A18.34584,18.34584,0,0,1,645.86642,212.90424Zm0,0a18.01435,18.01435,0,0,1-7.11,5.08,14.11964,14.11964,0,0,0,3.5-7.5,8.874,8.874,0,0,1-1.04-1.24,9.63631,9.63631,0,0,1-1.45-3.07,9.36816,9.36816,0,0,1-4.72,1.82,14.13681,14.13681,0,0,0-1.92,8.02,18.268,18.268,0,0,1-2.39-8.36,18.45,18.45,0,0,1-2.96-1s.42,2.08.76,5.34c.34,3.25.31,4.63-.76,7.36a9.96063,9.96063,0,0,0-.69,4.86,4.03671,4.03671,0,0,1,3.67-2.4s-1.89,4.03,1.4,5.42c3.29,1.37,4.56-.82,5.34-3.09,0,0,1.83.58,2.12,3.98,1.76-2.13,2.36-2.28,3.54-6.2,1.35-4.07,3.29-5.79,5.61005-8.04A18.34584,18.34584,0,0,1,645.86642,212.90424Zm36.12-41.48c.58-14.35-8.74-21.48-8.74-21.48,1.31,2.44,1.86,5.96-1.55,10.5-3.17-1.84-3.48-6.01-3.04-9.39.42005-3.38-.87994-8.86-3.5-11.59a8.25321,8.25321,0,0,0-6.04-2.57s2.51,2.32995,2.34,4.78c-.17,2.33-2.09,6.19-5.64,8.37-3.54,2.17-7.63.34-8.37-2.22-.94-3.23,2.61-7.12,2.61-7.12s-8.25-.08-15.72,10.29a11.69819,11.69819,0,0,1,4.29-8.4s-.62-.12006-3,.88995a16.08752,16.08752,0,0,0-5.16,3.47c-3.31994,3.02-4.02,5.49-4.02,5.49-2.03-8.05-11.11-9.04-11.11-9.04.69,2.88-.53,4.4-2.33,9.84-1.89,5.69-1.94,11.87.93,15.31,2.86,3.44.52,7.6-2.14,11.54-1.46,2.16-4.78,6.66-7.46,8.68a14.94865,14.94865,0,0,1-7.23,3.21c1.86,5.34,2.37,7.54,9.89,8.41-14.5,13.92-14.53,27.38-10.27,43.67.80005-4.96,6.28-9.67,6.28-9.67-.93,2.16-4.44,15.74,3.54,30.57a34.81341,34.81341,0,0,1,4.37-7.38c-.52,3.26-1.23,4.84.58,10.55,2.03,6.38.93,10.21-2.08,13.78,0,0,9.9-1.23,15.75-5.72,4.74-3.64,7.27-6.5,8.7-9.51a33.83766,33.83766,0,0,1,.38,7.13c12.22-7.57,17.81-18.1,19.23-22.57,0,0,2.05,3.81,1.11005,10.5,12.84-10.21,20.55-23.64,16.23-43.2,5.5,3.5,11.71-1.38,12.97-1.88995a14.40355,14.40355,0,0,1-4.32995-6.51c-1.15-3.11-1.46-8.64-1.52-11.23.12-8.95,2.68-8.32995,2.68-8.32995s8.95.22,12.63-10.12c1.92-5.39,1.99-7.32,4.32-9.14C697.56642,171.32423,688.59639,166.40425,681.98641,171.42421Zm-31.04,23.35c.94-.09,2.37.51,2.58,1.38a2.87223,2.87223,0,0,1-1.46,3.11c.04-.8-1.59-1.76-3.33-.66a23.85924,23.85924,0,0,1-3.8,1.9,4.8115,4.8115,0,0,1-5.95-1.98,23.88373,23.88373,0,0,1-1.88-3.79c-.76-1.93-2.62-2.13-3.07-1.46a2.86973,2.86973,0,0,1,.69-3.37c.69-.57,2.18-.2,2.88.45.7.62,3.49,3.16,6.04,4.09C646.26645,195.2342,650.00644,194.85419,650.94644,194.77424Zm-27.4-20.51a4.76593,4.76593,0,0,1,1.49-.26c1.48-.04,2.8.66,4.24.88,1.1.15,2.02.14,3.12.27a11.3637,11.3637,0,0,1,2.16.38c.2.07.41.15.61.24a11.714,11.714,0,0,0-.12,1.56,17.18622,17.18622,0,0,0,.39,3.6,7.43692,7.43692,0,0,1,1.07-2.32,6.75546,6.75546,0,0,1,.99-1.14,6.93775,6.93775,0,0,1,1.59,2.42005c.23.62.4,1.27.62,1.89a4.53994,4.53994,0,0,0,.93,1.8,2.5069,2.5069,0,0,0,2.07.57,3.75694,3.75694,0,0,0,2.1-.94,5.4408,5.4408,0,0,1-1.71,1.48c-3.85,1.83-8.34-1.71-9.47-2.88-.95-1.02-1.75-2.21-2.67-3.27a13.64272,13.64272,0,0,0-2.79-3.06,6.24634,6.24634,0,0,0-3.16-.98,5.54016,5.54016,0,0,0-1.5.21Zm37.55,36.87c-2.75,2.09-4.6,1.42-8.07,4.08-2.85,2.19-4.51,4.23-6.15,9.17-2.12,7.09-4.3,10.53-10.17,14.76-.06.06.54-3.13-.5-4.74-1.42,4.42-6.19,8.1-11.3,8.50995,1.98-3.66.75-4.81.28-6.67-.42-1.67-.58-3.03.89-5.77-1.74.89-3.75,3.16-3.25,4.15-2.45-5.15-1.37-11.08-.04-15.74,1.32-4.65,1.04-8.3.32-12.65-.54-3.25-2.09-4.57-3-7.13a14.16318,14.16318,0,0,1-.19-7.4s-.77,6.47,6.4,10.35c6.45,3.52,12.46,4.72,14.96-.71-1.38,5.64,3.35,8.56995,11.07995,9.50995,4.02.35,9.75-.75,12.08-4.88A7.831,7.831,0,0,1,661.0964,211.13422Zm10.43-21.01a4.91536,4.91536,0,0,0-1.1-1.04,6.257,6.257,0,0,0-3.14-1.05c-1.63995-.05-2.72.55-4.06.86-1.36.33-2.69.82-4.06,1.11-1.61.29-7.33.56-9.38-3.16a5.44116,5.44116,0,0,1-.54-2.2,3.80461,3.80461,0,0,0,1.17,1.99,2.50383,2.50383,0,0,0,2.01.74,4.47547,4.47547,0,0,0,1.81-.93c.54-.37,1.05-.81,1.6-1.17a6.80035,6.80035,0,0,1,2.69995-1.04,6.12711,6.12711,0,0,1,.15,1.49,7.31575,7.31575,0,0,1-.48,2.52,17.29276,17.29276,0,0,0,2.4-2.71,10.22419,10.22419,0,0,0,.82-1.34,5.23124,5.23124,0,0,1,.63.17,11.55287,11.55287,0,0,1,1.98.93c.98.55,1.71,1.09,2.7,1.6,1.29.67,2.79.87,3.97,1.75a5.71663,5.71663,0,0,1,1.06,1.08Zm-32.77,27.86a14.11964,14.11964,0,0,0,3.5-7.5,8.874,8.874,0,0,1-1.04-1.24,9.63631,9.63631,0,0,1-1.45-3.07,9.36816,9.36816,0,0,1-4.72,1.82,14.13681,14.13681,0,0,0-1.92,8.02,18.268,18.268,0,0,1-2.39-8.36,18.45,18.45,0,0,1-2.96-1s.42,2.08.76,5.34c.34,3.25.31,4.63-.76,7.36a9.96063,9.96063,0,0,0-.69,4.86,4.03671,4.03671,0,0,1,3.67-2.4s-1.89,4.03,1.4,5.42c3.29,1.37,4.56-.82,5.34-3.09,0,0,1.83.58,2.12,3.98,1.76-2.13,2.36-2.28,3.54-6.2,1.35-4.07,3.29-5.79,5.61005-8.04a18.34584,18.34584,0,0,1-2.9-.98A18.01435,18.01435,0,0,1,638.75644,217.98419Zm7.11-5.08a18.01435,18.01435,0,0,1-7.11,5.08,14.11964,14.11964,0,0,0,3.5-7.5,8.874,8.874,0,0,1-1.04-1.24,9.63631,9.63631,0,0,1-1.45-3.07,9.36816,9.36816,0,0,1-4.72,1.82,14.13681,14.13681,0,0,0-1.92,8.02,18.268,18.268,0,0,1-2.39-8.36,18.45,18.45,0,0,1-2.96-1s.42,2.08.76,5.34c.34,3.25.31,4.63-.76,7.36a9.96063,9.96063,0,0,0-.69,4.86,4.03671,4.03671,0,0,1,3.67-2.4s-1.89,4.03,1.4,5.42c3.29,1.37,4.56-.82,5.34-3.09,0,0,1.83.58,2.12,3.98,1.76-2.13,2.36-2.28,3.54-6.2,1.35-4.07,3.29-5.79,5.61005-8.04A18.34584,18.34584,0,0,1,645.86642,212.90424Zm0,0a18.01435,18.01435,0,0,1-7.11,5.08,14.11964,14.11964,0,0,0,3.5-7.5,8.874,8.874,0,0,1-1.04-1.24,9.63631,9.63631,0,0,1-1.45-3.07,9.36816,9.36816,0,0,1-4.72,1.82,14.13681,14.13681,0,0,0-1.92,8.02,18.268,18.268,0,0,1-2.39-8.36,18.45,18.45,0,0,1-2.96-1s.42,2.08.76,5.34c.34,3.25.31,4.63-.76,7.36a9.96063,9.96063,0,0,0-.69,4.86,4.03671,4.03671,0,0,1,3.67-2.4s-1.89,4.03,1.4,5.42c3.29,1.37,4.56-.82,5.34-3.09,0,0,1.83.58,2.12,3.98,1.76-2.13,2.36-2.28,3.54-6.2,1.35-4.07,3.29-5.79,5.61005-8.04A18.34584,18.34584,0,0,1,645.86642,212.90424Zm0,0a18.01435,18.01435,0,0,1-7.11,5.08,14.11964,14.11964,0,0,0,3.5-7.5,8.874,8.874,0,0,1-1.04-1.24,9.63631,9.63631,0,0,1-1.45-3.07,9.36816,9.36816,0,0,1-4.72,1.82,14.13681,14.13681,0,0,0-1.92,8.02,18.268,18.268,0,0,1-2.39-8.36,18.45,18.45,0,0,1-2.96-1s.42,2.08.76,5.34c.34,3.25.31,4.63-.76,7.36a9.96063,9.96063,0,0,0-.69,4.86,4.03671,4.03671,0,0,1,3.67-2.4s-1.89,4.03,1.4,5.42c3.29,1.37,4.56-.82,5.34-3.09,0,0,1.83.58,2.12,3.98,1.76-2.13,2.36-2.28,3.54-6.2,1.35-4.07,3.29-5.79,5.61005-8.04A18.34584,18.34584,0,0,1,645.86642,212.90424Zm258.61992,7.17c-.8-7.52,6.52-11.87,11.29-6.05-5.68005-13.7-16.63-10.17-40.68,1.76-9.55,4.73-24.18,5.81995-30.42,4.17,44.97-7.62,61.05-34.46,45.45-44.83-7.02-4.53-19.2-3.67-34.9,2.26-16.49,6.23-23.66,9.54-39.28,11.7-15.61,2.16-19.74-4.02-19.74-4.02.53,6.24,4.38995,6.83,4.38995,6.83s-13.35-.42-19.85-12.53c-3.63,10.9,4.05,13.8,4.05,13.8-5.87.54-14.06.05-18.55-3.13995-10.65-7.53,1.3-25.67,12.78-14.41-6.28-15.53-32.77-9.11-30.61,7.96a13.98122,13.98122,0,0,1-2.69-14.68c2.66-6.72,13.63-14.77,33.05-12.77,9.50994.98,13.49,6.14,20.59,3.85-4.45-.48-9.15-7.58-.72-5.3,20.46,5.91,26.99-7.23,26.99-7.23s-8.22,4.32-14.99.8c12.81-6.57,6.91-12.5-.08-15.38-6.86-2.81-16.26-2.87-23.96-1.43a58.11083,58.11083,0,0,0-17.2,6.25,49.85376,49.85376,0,0,1,13.58-2.4c5.92-.18,12.66.25,16.75,1.33,6.52,1.72,7.46,4.09,2.1,6.08-3.83,1.41-10.03,2.21-17.4,2.42-17.05.48-49.01,5.04-48.6,29.85a22.26058,22.26058,0,0,0,3.02,10.57c3.62,5.7,8.28,11.24,22.3,15.25994,32.35,7.16,67.54-3.48,97.24-15.23,11.38-4.46,18.93-5.06,23.4-4.29,4.63.79,6.48,5.76,1.82,11.43-9.74,11.84-40.27995,26.42-94.40994,18.13-11.72-1.6-21.22-2.04-34.67-2.68-22.62-1.11005-48.84,2.09-68.20994,5.29a17.292,17.292,0,0,0,6.74,4.04,31.66238,31.66238,0,0,0-7.66,2.94c-.13.07-.3.17005-.49.28a20.3456,20.3456,0,0,1-9.07,3.17c1.76,16.21-4.41,29.69-18.71,41.08l-8.03,6.39.83-5.95a54.09329,54.09329,0,0,1-13.54,11.9l-6.75,4.17005.25-3.81c-.7.58-1.43006,1.17-2.24006,1.78-6.65,5.13-17.29,6.49-17.74,6.54l-10.37,1.29,6.74-7.99a7.9429,7.9429,0,0,0,1.89-7.68l-1.19,2.81-4.04-7.5a46.78941,46.78941,0,0,1-5.28-16.4c-1.22,4.87-3.11,6.61-6.5,7.91-7.61,2.64-46.29,16.05005-45.69-8.7.32-15.16-5.73-17.87-9.69-18.04a11.92315,11.92315,0,0,0-.99-1.26,10.16,10.16,0,0,0-14.32-.56,6.973,6.973,0,0,1,6.83,2.14,7.41182,7.41182,0,0,1,1.08,1.7,8.92938,8.92938,0,0,0-2.55,3.4,11.65585,11.65585,0,0,0-10.03,2.16,10.3474,10.3474,0,0,0-3.32-.23,10.12315,10.12315,0,0,0-8.95,11.19,7.07349,7.07349,0,0,1,5.83-4.28,3.78335,3.78335,0,0,1,2.55.46,7.497,7.497,0,0,0-1.04,4.16c0,2.05.56,3.41,1.67,5.61-5.96,5.96-4.76,12.45.31,16.54-.78-4.22.67-5.96,1.55-6.62,2.44,4.76995,6.86,4.94,10.38,4.76,5.6-.29,8.30005,1.69,10.39,5.26,4.09,7.1,10.21,9.64,17.02,10.75a5.24929,5.24929,0,0,0,.23.84,6.51747,6.51747,0,0,0,2.18,3.26l-.01.01a16.51545,16.51545,0,0,1-5.09,2.34c7.66,2.47,16.49,1.73,24.22.07a77.70012,77.70012,0,0,0,9.45-2.82c1.55-.55,4.28-1.96,5.96-1.33,3.45,1.29-2.35,6.06006-3.58,6.63a27.45922,27.45922,0,0,0,14.93-.4c2.78-.78,1.61,1.32.91,3.26a6.32239,6.32239,0,0,0,.79,5.7c.55-2.75,3.88-5.68,4.04-1.24.08,2.49,0,4.37,1.88,7.51,1.25-6.25,4.97-9.93,11.76-10.91a141.26216,141.26216,0,0,0,32.69-9c8.92-3.48,24.75-9.99,50.55-30.75,18.63-15,32.68-20.88,41.66-23.36-5.44,12.77,6.98,19.47,23.07,20.87,6.4.99,12.78,1.68994,16.05,4.97a5.269,5.269,0,0,1,1.72,4.72,43.76969,43.76969,0,0,1-41.76-2.87c-10.06994-6.49-15.45995-4.53-18.39995-.99a9.99121,9.99121,0,0,0-10.29,9.87,7.32531,7.32531,0,0,1,6.32-3.34,6.13966,6.13966,0,0,1,2.06.41c-.32,1.98005-.66,3.57.49,5.82a4.03349,4.03349,0,0,0,1.13,1.24,8.298,8.298,0,0,0-1.14,9.57l.01.01c-1.94,3.85-1.44,8.99,4.11,12-1.19-2.26-.79-4.07.25-6.04a8.163,8.163,0,0,1,.97-1.42005,6.60632,6.60632,0,0,0,.92.8,11.54863,11.54863,0,0,0,6.17,1.68994,11.26979,11.26979,0,0,0,4.79-.87994l.14-.03a4.90224,4.90224,0,0,0-.69,2.53c0,3.67,2.12,5.4,5.19,6.92l.12.05c1.9,5.15,8.47,9.12,14.72,3.72a6.01234,6.01234,0,0,1-6.43993-3.85l.1-.05c2.87-1.52,4.84-2.07,4.95-5.52,21.31-18.68,31.41-3.95,39.49-4.93,1.09,4.33-1.08,9.46-7.59,9.42,9.11,3.45,17.42-5.22,15.38-12.72a6.73639,6.73639,0,0,0,2.42-5.45,43.97349,43.97349,0,0,0,5.5-4.51c1.55,2.3,1.94995,5.67.29,10.9.02,0,7.28-5.23,6.2-16.38-.26-3.34.12-6.41,4.34-9.04,4.16-2.57,21.05-3.97,17.28,4.48,2.76995-.88,3.66-3.5,2.68-6.25-1.53-4.34-11.62-6.99-15.89-7.69-13.79-2.23-20.61-9.36-27.53-13.78-7.28-4.65-22.78-7.43-22.78-7.43,32.12,1.88,39.13,16.21,59.01,16.55,10.3.18,18.98-.76,26.77-7.67,4.71-4.32995,7.78-7.51,12.31-8.9-6.06,13.95,2.23,19.44,2.83,25.31.75,7.34-4.82,7.49-10.01,7.6-9.2.18-10.92.73-13.55,3.96a6.89534,6.89534,0,0,0-1.9.75,10.09637,10.09637,0,0,0-4.06,13.85,6.81023,6.81023,0,0,1,3.78-6.09,7.35741,7.35741,0,0,1,2.72-.77c-.4,3.08,2.25,8.48,5.67,9.48a7.1137,7.1137,0,0,0,2.89.23,7.29376,7.29376,0,0,0,1.11,4.95,7.68879,7.68879,0,0,0,4.34,2.84l-.17.5c-.82,4.92,1.56,9.67,6.96,12.01a7.34081,7.34081,0,0,1-1.57-7.03,6.85519,6.85519,0,0,1,2.03-3.14,5.75754,5.75754,0,0,0,5.07-.75c1.5-.93,2.02-2.38995,2.67-4,.9,1.11005.85,3.84,3.52,5.23a6.69026,6.69026,0,0,0,4.6.35,12.37364,12.37364,0,0,0,.76,1.41,10.13787,10.13787,0,0,0,13.75,4.23,7.22727,7.22727,0,0,1-6.12-3.74,7.34246,7.34246,0,0,1-.57-4.77l.66-.37c2.86-1.76,7.44-9,3.14-16.65-5.12-9.13-8.28-6.41-6.12-14.31994.19-.69,1.71-4.49,1.98-5.37006h.02a11.39013,11.39013,0,0,0,5.31-3.56c2.88,1.9,4.33,5.25,1.42,9.62,6.49-4.7,6.27-14.92,1.72-19.23,0-3.39-.53-4.29-2.19-6.59,2.28-9.57,7.22-6.32,7.74-19.23C913.15632,227.81421,905.11635,226.04419,904.48634,220.07422Zm-309.6199-10.97c-6.7-2.25995-10.83-4.00995-10.83-4.00995-26.58-11.31-44.66-20.92-42.37-37.98.94-6.72,6.06-11.95,3.08-18.06a9.30692,9.30692,0,0,0-2.72-3.3,7.85021,7.85021,0,0,0-.49-2.13,10.03589,10.03589,0,0,0-13.01995-6.09,7.06673,7.06673,0,0,1,5.51,4.64,6.85293,6.85293,0,0,1,.37994,2.51,7.8856,7.8856,0,0,0-4.06,3.23,6.50782,6.50782,0,0,0-2.8-2.44,7.16254,7.16254,0,0,0-4.05-.46,9.79246,9.79246,0,0,0-3.05-2.95,9.93585,9.93585,0,0,0-13.83,3.54,7.06093,7.06093,0,0,1,7.07.04,6.73479,6.73479,0,0,1,2.81,3.22,7.09821,7.09821,0,0,0-1.44,2.08,6.429,6.429,0,0,0-.13,5.15c-9.31-1.3-16.91,6.36-11.67,16,.13-3.63,1.73-5.91,3.88-6.95-1.52,5.65,3.9,12.99,11.3,14.72,10.37,2.41,8.97,12.41,8.51,13.63a10.96943,10.96943,0,0,0-.22,6.82l-.01.04c-4,1.97-9.47.94-10.8-5.44-2.12,9.68005,9.08,16.04,16.41,11.99l.01.02a9.80867,9.80867,0,0,0,4.95995,1.28,7.99652,7.99652,0,0,0,7.37-4.47l.92.62a37.07578,37.07578,0,0,1,11.34,13.19c3.81,7.59,5.6,21.38-2.77,29.12,4.56,1.23,9.33-.83,12.31-4.29,1.69-1.97,7.05005-9.68,10.07-4.58.67,1.13-3.19,7.84-2.92,10.12.35,3.2,2.83,5.7,5.7,6.9-2.89-7.78,8.49-9.24,13.44-9.72h.01c-3.4-13.01-4.2-24.52,2-35.76Zm497.53977,531.12986c-1.66992-9.95-3.6499-19.53-5.83984-28.85-4.20007-18.2-9.18-35.4-14.09008-52.39-12.51-43.18-25.45-87.85-25.45-146.59993,0-50.25,11.86-95.66,21.84-124.91,10.84-31.78,21.80993-51.86,21.93005-52.07994l1.60986-2.9.24012-.47-.24012-.24-16.75-17.42-14.87988-15.51-3.18994-3.27-3.67017,2.68c-.11987.1-10.09985,7.29-27.79992,16.1-5.53,2.75-11.8,5.65-18.78,8.55a321.35633,321.35633,0,0,1-122.16,24.59c-46.06,0-90.90995-11.21-120.44-20.6-13.93-4.42-25.85-8.9-34.9-12.54-11.8-4.76-18.72-8.1-18.81-8.16l-2.35-1.14-2.35,1.14c-.12.06-7.04,3.4-18.84,8.16-9.05,3.64-20.94,8.12-34.87,12.54-29.56,9.39-74.40995,20.6-120.46994,20.6a321.27018,321.27018,0,0,1-122.13-24.59c-6.98-2.9-13.28-5.8-18.81-8.55-17.7-8.81-27.65-16-27.8-16.1l-3.68-2.68-3.15,3.27-14.89,15.51-16.64,17.33-.34.33.34.62,1.51,2.75c.09.22,11.06,20.3,21.9,52.07994,9.98,29.25,21.84,74.66,21.84,124.91,0,58.75-12.91,103.42-25.42,146.59993-4.92,16.99-9.92,34.19-14.12,52.39-2.13,9.08-4.08,18.4-5.71,28.07a384.28893,384.28893,0,0,0-5.47,64.44,259.20886,259.20886,0,0,0,5.47,53.87,224.165,224.165,0,0,0,66.93,118.88,246.59634,246.59634,0,0,0,47.6,34.69c32.99,18.54,71.65995,37.07,109.03995,54.9799,45,21.56006,87.5,41.95006,109.03,57.39012,37.69,27.05993,44.63994,41.49,45.64995,44.13988l1.3,3.31006h8.13l1.29-3.31006c1.02-2.6499,8-17.08,45.66-44.13988,21.53-15.44006,64.03-35.83006,109.03-57.39012,37.41-17.9099,76.07993-36.43993,109.03994-54.9799a245.67807,245.67807,0,0,0,47.6-34.69,223.89544,223.89544,0,0,0,67.05991-119.38,261.2296,261.2296,0,0,0,5.34009-53.37A383.48211,383.48211,0,0,0,1092.40621,740.23405ZM1040.29636,916.044a198.20271,198.20271,0,0,1-33.49,40.74,220.51822,220.51822,0,0,1-42.37,30.86c-32.31,18.16-70.52,36.44994-107.47,54.14989-46.07995,22.08007-89.59995,42.93-113.13992,59.83006-15.51,11.15-26.87,20.79-35.12,29.03l-.03.04c-8.28-8.25-19.65-17.92-35.18-29.07006-23.54-16.9-67.06-37.75-113.15-59.83006-36.94-17.69995-75.15-35.98992-107.45993-54.14989a221.83191,221.83191,0,0,1-42.35-30.83,200.25133,200.25133,0,0,1-33.50994-40.77c-20.08-32.46-30.27-70.20994-30.27-112.14994,0-34.63,5.13-64.59,11.95-92.51,3.77-15.42,8.03-30.21,12.26995-44.82,13.03-45.04,26.5-91.59,26.5-154.16994,0-53.99-12.67-102.49-23.29-133.68a437.439,437.439,0,0,0-16.59-41.7l6.21-6.46a322.6817,322.6817,0,0,0,35.77,17.48,348.61769,348.61769,0,0,0,132.57,26.66c49.51995,0,97.32993-11.89,128.70993-21.9,21.13-6.73,37.9-13.53,47.82-17.82h.03c9.92,4.29,26.66,11.09,47.78,17.85,31.39,9.98,79.17,21.87,128.69,21.87a348.66171,348.66171,0,0,0,132.57-26.66,320.05139,320.05139,0,0,0,35.77-17.48l6.21,6.46a434.2085,434.2085,0,0,0-16.59,41.7c-10.63,31.19-23.29,79.69-23.29,133.68,0,62.57994,13.47009,109.13,26.5,154.16994,4.2301,14.61,8.53,29.4,12.3,44.82,6.82,27.92,11.92,57.88,11.92,92.51C1070.56638,845.83406,1060.3663,883.584,1040.29636,916.044ZM892.48012,1086.57658h-6.7739v-4.51593h18.44472v4.51593H897.3778v17.74483h-4.89768Zm15.42626-4.51593h5.27869l5.85131,9.41286,5.85132-9.41286h5.27944v22.26076h-4.86587v-14.53323l-6.26489,9.50829h-.12725l-6.20126-9.41285v14.43779h-4.80149Zm-155-370.6466a45.555,45.555,0,0,0-44.19994,44.43,45.71245,45.71245,0,0,0-44.29-44.43,3.38452,3.38452,0,0,0,.55-.03,45.75242,45.75242,0,0,0,43.74-44.47,45.59821,45.59821,0,0,0,43.63994,44.47A3.5089,3.5089,0,0,0,752.90637,711.41405ZM672.5835,1260.506c-.29106,4.50345-1.59877,17.84-3.03265,19.01377-5.61235,4.32964-14.48175,6.52006-26.37548,6.52006-25.8243,0-45.29877-16.7305-45.29877-38.9168,0-20.35778,17.49477-42.331,45.75947-42.331,10.9384,0,22.78212,4.55582,25.42848,6.49982,1.37853,1.14283,2.713,13.86391,3.04218,18.97925.00119.40713-.222.88211-1.2839,1.05949-.02678.00476-2.64992.39166-3.01241-.66427-2.8279-13.721-15.57815-19.82922-26.96891-19.82922-17.94892,0-28.6647,11.87944-28.6647,31.77652,0,25.71358,16.11147,37.22279,32.07889,37.22279,10.8253,0,23.18925-7.46051,24.30053-19.51375.03809-.74641,1.19163-.90474,2.16244-.90474a3.504,3.504,0,0,1,1.0589.13571A.99908.99908,0,0,1,672.5835,1260.506Zm-253.108-36.23949c-10.84018-6.29269-21.07859-12.23539-21.07859-23.691,0-7.40813,6.33554-15.28172,18.07629-15.28172,11.28957,0,18.484,6.01412,20.25124,16.83763,0,.8226,1.17734.994,2.16541.994,1.88388,0,2.16542-.7214,2.16542-1.15235,0-3.79989-.19285-16.29241-2.6529-17.50666-4.613-2.50232-10.67828-5.05939-20.69051-5.05939-18.712,0-31.2813,15.21387-31.2813,29.423,0,14.84722,12.48,22.09464,24.54934,29.104,11.47588,6.66411,22.31546,12.958,22.31546,25.22313,0,12.16871-10.09139,17.615-20.0929,17.615-15.0115,0-24.2678-9.38665-25.394-25.7112,0-.86545-1.2577-.994-2.00709-.994-1.81126,0-2.00708.80593-2.00589,1.11663-.206,3.538-.45773,6.86648-.67975,9.80212-.66307,8.76762-.73867,10.70328-.0375,11.2616,8.68191,7.21171,17.81023,10.56995,28.7272,10.56995,18.23522,0,32.51995-14.15081,32.51995-32.217C444.32542,1238.68994,431.69243,1231.358,419.4755,1224.26653Zm320.83057,42.806a10.86659,10.86659,0,0,0-1.51425-.09643c-.74165,0-1.50591,0-1.57019.61784l-.01667.075c-1.64162,7.31051-2.13685,9.51641-19.46138,9.51641h-6.06531c-4.60344,0-5.47009-.48213-5.47009-15.72815v-14.80555h7.18433c12.43538,0,12.88417.51189,13.86986,5.93079l.10119.56189.51546.081c.03333.00238,3.27015.27857,3.54752-.59046l.1381-.5226-.12976-.06429v-6.32244a53.85686,53.85686,0,0,1,.60712-9.07.89717.89717,0,0,0-.35237-.9,4.32744,4.32744,0,0,0-3.21658-.16547.71874.71874,0,0,0-.42141.52022c-1.12616,4.4606-1.55,4.79868-14.65913,4.79868h-7.18433v-13.71034a104.1498,104.1498,0,0,1,.54106-13.71034H716.346c15.26744,0,16.47932,2.57255,17.29834,7.01171,0,.22619.10357.6226.79522.73332a5.18974,5.18974,0,0,0,.77736.0488c2.59993,0,2.59993-.63569,2.59993-.94045l-.0131-.1238a34.31133,34.31133,0,0,1-.01666-3.75823c.01547-.62856.02976-1.19164.02976-1.56425a28.62078,28.62078,0,0,1,.75-7.91407l.27023-.86783-.90474.07857c-7.0629.6107-15.22459.93331-23.60293.93331-15.97457,0-27.16355-.30476-34.1574-.92736a.93679.93679,0,0,0-.92915.38332c-.56427.76546-.29106,2.68088.06548,3.38682a.97006.97006,0,0,0,.69819.54879c11.336,1.18568,12.377,2.6404,12.377,17.30072v35.19547c0,14.51032-.92617,15.79243-12.31336,17.14-1.13925,0-1.15235,2.39637-1.15235,2.42018a2.74245,2.74245,0,0,0,.16845,1.0333,1.06477,1.06477,0,0,0,1.02319.71784h.00416c8.69441-.619,23.10057-.619,34.67644-.619,5.09034,0,9.77236.21547,13.53535.38808,2.70469.125,5.04153.23214,6.8641.23214,2.42255,0,3.36181-.80117,3.8487-3.22491a116.48168,116.48168,0,0,0,2.52374-13.1175C741.562,1267.25941,740.6501,1267.1237,740.30607,1267.07251Zm-248.63075-56.552a.7444.7444,0,0,0,.67141-.46546c.28511-.54523.65594-2.34994.05119-3.219a1.12625,1.12625,0,0,0-1.10235-.48332c-3.44276.44284-11.43124.7726-16.274.7726-7.09445,0-14.43,0-19.22865-.7726a1.12994,1.12994,0,0,0-1.10949.48689c-.60474.8714-.23273,2.67731.053,3.22372.20713.39761.45713.45594.59879.45356,9.57772,1.02021,11.28243,2.394,11.28243,17.30072v35.19547c0,14.76032-1.70471,16.12218-11.21815,17.14a.79615.79615,0,0,0-.71069.544c-.21488.45117-.78391,2.413-.09286,3.26538a1.02321,1.02321,0,0,0,.79582.38809.97268.97268,0,0,0,.24106-.02976c4.94748-.61546,12.289-.61546,19.38876-.61546,3.97608,0,12.49371.12857,16.274.61546a1.13355,1.13355,0,0,0,1.10235-.48332c.60475-.869.23392-2.67374-.05119-3.219a.76.76,0,0,0-.61843-.46309c-10.36817-.90354-11.27112-3.63085-11.27112-17.14239v-35.19547C480.45718,1214.24537,481.428,1211.26331,491.67532,1210.52047Zm102.54186-4.16893-.01964.00238a113.72407,113.72407,0,0,1-13.61928.77141c-6.89743,0-10.69673,0-15.21684-.744a.94058.94058,0,0,0-.98807.21785,3.40938,3.40938,0,0,0-.38214,2.91063c.21607.72737.60892.94522.94819,1.00712,9.37,1.01188,11.13958,3.76061,11.13958,17.30072v34.76929l-53.47355-55.30326h-.25832c-6.69922,0-15.68529-.16071-20.34885-.90354a.91723.91723,0,0,0-.99521.25237c-.653.71308-.40892,2.66064-.13095,3.29158a.8797.8797,0,0,0,.70176.59284c4.93618.57737,14.55973,7.51884,14.55973,12.47466v40.02153c0,13.408-1.79281,16.13171-11.21875,17.14a.8333.8333,0,0,0-.75295.54285c-.33214.67617-.53689,2.58207.00357,3.28324a.85282.85282,0,0,0,.825.34166,135.53114,135.53114,0,0,1,16.737-.61546,101.9141,101.9141,0,0,1,12.41812.59046.91743.91743,0,0,0,.99283-.26547c.672-.7476.40832-2.86659.16964-3.4011a.73073.73073,0,0,0-.60475-.4738c-10.39674-.90592-11.27112-4.93081-11.27112-17.14239v-36.04068l57.03238,57.952a2.4363,2.4363,0,0,0,1.75.66427,3.183,3.183,0,0,0,1.19639-.23214c.7732-.32023.88867-.77736.88391-1.0964-.57082-4.5832-.77319-14.31032-.77319-21.247v-35.19547c0-12.46514.87438-16.55669,11.233-17.29715a.75766.75766,0,0,0,.67618-.47141,3.72972,3.72972,0,0,0,.07618-3.12254A1.314,1.314,0,0,0,594.21718,1206.35154Zm440.519,49.026c0,17.48047-14.4508,30.66226-33.61457,30.66226-17.28286,0-30.82059-11.55088-30.82059-26.29691,0-11.30207,8.41763-21.39942,23.14342-27.829-8.73071-5.67366-17.68285-12.81632-17.68285-24.95647,0-16.14122,13.17583-28.31351,30.64679-28.31351,14.421,0,26.15286,10.46519,26.15286,23.32912,0,10.33425-5.61176,17.88285-18.71854,25.10289C1024.54715,1233.78055,1034.73616,1241.58987,1034.73616,1255.37759Zm-51.22956,4.36535c0,13.29607,9.8033,20.25183,19.48756,20.25183,11.82825,0,19.77566-7.201,19.77566-17.91737,0-12.57465-10.74614-19.01138-22.122-25.82668l-.96545-.57855C988.49813,1241.26964,983.5066,1248.70515,983.5066,1259.74294Zm36.77162-56.9925c0-10.56518-7.00815-18.234-16.665-18.234-9.22594,0-15.42458,6.26768-15.42458,15.59719,0,10.52591,8.54382,16.61026,19.7697,23.40175C1016.02,1218.39288,1020.27822,1211.21926,1020.27822,1202.75044Zm-57.47344,52.62715c0,17.48047-14.452,30.66226-33.61575,30.66226-17.28168,0-30.8194-11.55088-30.8194-26.29691,0-11.30088,8.41167-21.39822,23.12913-27.829-8.73072-5.682-17.684-12.833-17.684-24.95647,0-16.14122,13.18773-28.31351,30.67654-28.31351,14.40437,0,26.1231,10.46519,26.1231,23.32912,0,10.3402-5.6058,17.88761-18.70306,25.10289C952.61577,1233.78055,962.80478,1241.58987,962.80478,1255.37759Zm-14.45913-52.62715c0-10.56518-7.00814-18.234-16.66383-18.234-9.23547,0-15.44006,6.26768-15.44006,15.59719,0,10.53186,8.551,16.61384,19.78518,23.40175C944.08743,1218.39169,948.34565,1211.21926,948.34565,1202.75044Zm-36.77162,56.9925c0,13.29607,9.79616,20.25183,19.47328,20.25183,11.83777,0,19.79113-7.201,19.79113-17.91737,0-12.57585-10.74733-19.01257-22.12559-25.82787l-.96307-.57736C916.56556,1241.26964,911.574,1248.70515,911.574,1259.74294Zm-20.70182-4.36535c0,17.48047-14.4508,30.66226-33.61456,30.66226-17.28287,0-30.82059-11.55088-30.82059-26.29691,0-11.30207,8.41763-21.39942,23.14223-27.829-8.73786-5.67842-17.69714-12.82584-17.69714-24.95647,0-16.14122,13.18178-28.31351,30.66226-28.31351,14.4127,0,26.13738,10.46519,26.13738,23.32912,0,10.3402-5.607,17.8888-18.70425,25.10408C880.682,1233.78889,890.87221,1241.60534,890.87221,1255.37759Zm-51.22956,4.36535c0,13.29607,9.80331,20.25183,19.48757,20.25183,11.82825,0,19.77565-7.201,19.77565-17.91737,0-12.56751-10.72947-19.00186-22.08988-25.81477l-.9833-.59046C844.63894,1241.26606,839.64265,1248.70158,839.64265,1259.74294Zm36.77043-56.9925c0-10.56518-7.00814-18.234-16.66383-18.234-9.22594,0-15.42458,6.26768-15.42458,15.59719,0,10.54138,8.54381,16.61979,19.7697,23.40175C872.15486,1218.39169,876.41308,1211.21926,876.41308,1202.75044Zm-61.66975,7.77a.74545.74545,0,0,0,.67141-.46427c.28451-.54642.65593-2.35113.05119-3.22015a1.13228,1.13228,0,0,0-1.10235-.48332c-3.44277.44284-11.43184.7726-16.27456.7726-7.09386,0-14.42937,0-19.22805-.7726a1.14845,1.14845,0,0,0-1.10949.48689c-.60475.8714-.23333,2.67731.05238,3.22372a.718.718,0,0,0,.59879.45356c9.57831,1.02021,11.283,2.394,11.283,17.30072v35.19547c0,14.76032-1.70472,16.12218-11.21875,17.14a.79614.79614,0,0,0-.71069.544c-.21428.45-.78331,2.41183-.09167,3.26538a1.02172,1.02172,0,0,0,.79641.38809.97849.97849,0,0,0,.24047-.02976c4.94748-.61546,12.28776-.61546,19.38757-.61546,3.97608,0,12.49371.12857,16.27456.61546a1.12832,1.12832,0,0,0,1.10235-.48332c.60474-.869.23332-2.67374-.05119-3.22015a.734.734,0,0,0-.61308-.4619h-.00595c-10.36758-.90354-11.27113-3.63085-11.27113-17.14239v-35.19547C803.52458,1214.24537,804.4948,1211.26331,814.74333,1210.52047Z" transform="translate(-319.57654 -130.50563)" fill="#a39161"></path>
  </g>
</svg>
